<svg width="1920" height="1093" viewBox="0 0 1920 1093" fill="none" xmlns="http://www.w3.org/2000/svg">
<ellipse cx="1449.27" cy="545.177" rx="319.801" ry="308.435" fill="#F8FBFF"/>
<path d="M441.52 736.99C440.474 736.99 439.578 736.745 438.832 736.254C438.096 735.763 437.578 735.091 437.28 734.238L438.56 733.502C438.997 734.857 439.994 735.534 441.552 735.534C442.32 735.534 442.906 735.379 443.312 735.07C443.717 734.75 443.92 734.329 443.92 733.806C443.92 733.273 443.717 732.873 443.312 732.606C442.906 732.339 442.229 732.057 441.28 731.758C440.81 731.609 440.453 731.491 440.208 731.406C439.962 731.31 439.653 731.171 439.28 730.99C438.917 730.798 438.645 730.606 438.464 730.414C438.282 730.211 438.117 729.95 437.968 729.63C437.829 729.31 437.76 728.947 437.76 728.542C437.76 727.571 438.101 726.803 438.784 726.238C439.466 725.662 440.298 725.374 441.28 725.374C442.165 725.374 442.933 725.598 443.584 726.046C444.245 726.494 444.741 727.086 445.072 727.822L443.824 728.542C443.344 727.39 442.496 726.814 441.28 726.814C440.672 726.814 440.181 726.963 439.808 727.262C439.434 727.561 439.248 727.966 439.248 728.478C439.248 728.969 439.424 729.342 439.776 729.598C440.128 729.854 440.736 730.121 441.6 730.398C441.909 730.494 442.128 730.563 442.256 730.606C442.384 730.649 442.581 730.723 442.848 730.83C443.125 730.937 443.328 731.022 443.456 731.086C443.584 731.15 443.754 731.241 443.968 731.358C444.192 731.475 444.357 731.587 444.464 731.694C444.57 731.801 444.693 731.934 444.832 732.094C444.981 732.243 445.088 732.398 445.152 732.558C445.216 732.718 445.269 732.905 445.312 733.118C445.365 733.321 445.392 733.539 445.392 733.774C445.392 734.755 445.034 735.539 444.32 736.126C443.605 736.702 442.672 736.99 441.52 736.99ZM450.957 736.99C449.752 736.99 448.749 736.59 447.949 735.79C447.149 734.979 446.749 733.977 446.749 732.782C446.749 731.587 447.149 730.59 447.949 729.79C448.749 728.979 449.752 728.574 450.957 728.574C451.746 728.574 452.456 728.766 453.085 729.15C453.714 729.523 454.184 730.03 454.493 730.67L453.325 731.342C453.122 730.915 452.808 730.574 452.381 730.318C451.965 730.062 451.49 729.934 450.957 729.934C450.157 729.934 449.485 730.206 448.941 730.75C448.408 731.294 448.141 731.971 448.141 732.782C448.141 733.582 448.408 734.254 448.941 734.798C449.485 735.342 450.157 735.614 450.957 735.614C451.49 735.614 451.97 735.491 452.397 735.246C452.824 734.99 453.149 734.649 453.373 734.222L454.557 734.91C454.216 735.539 453.725 736.046 453.085 736.43C452.445 736.803 451.736 736.99 450.957 736.99ZM457.339 730.126C457.798 729.134 458.63 728.638 459.835 728.638V730.094C459.152 730.062 458.566 730.243 458.075 730.638C457.584 731.033 457.339 731.667 457.339 732.542V736.782H455.947V728.782H457.339V730.126ZM467.512 735.774C466.69 736.585 465.693 736.99 464.52 736.99C463.346 736.99 462.349 736.585 461.528 735.774C460.717 734.963 460.312 733.966 460.312 732.782C460.312 731.598 460.717 730.601 461.528 729.79C462.349 728.979 463.346 728.574 464.52 728.574C465.693 728.574 466.69 728.979 467.512 729.79C468.333 730.601 468.744 731.598 468.744 732.782C468.744 733.966 468.333 734.963 467.512 735.774ZM464.52 735.63C465.32 735.63 465.992 735.358 466.536 734.814C467.08 734.27 467.352 733.593 467.352 732.782C467.352 731.971 467.08 731.294 466.536 730.75C465.992 730.206 465.32 729.934 464.52 729.934C463.73 729.934 463.064 730.206 462.52 730.75C461.976 731.294 461.704 731.971 461.704 732.782C461.704 733.593 461.976 734.27 462.52 734.814C463.064 735.358 463.73 735.63 464.52 735.63ZM470.385 736.782V725.102H471.777V736.782H470.385ZM473.9 736.782V725.102H475.292V736.782H473.9ZM485.928 725.582C487.453 725.582 488.717 726.126 489.72 727.214C490.733 728.291 491.24 729.614 491.24 731.182C491.24 732.75 490.733 734.078 489.72 735.166C488.717 736.243 487.453 736.782 485.928 736.782H481.56V725.582H485.928ZM485.928 735.374C487.069 735.374 488.003 734.974 488.728 734.174C489.453 733.374 489.816 732.377 489.816 731.182C489.816 729.987 489.453 728.99 488.728 728.19C488.003 727.39 487.069 726.99 485.928 726.99H483.048V735.374H485.928ZM499.652 735.774C498.831 736.585 497.834 736.99 496.66 736.99C495.487 736.99 494.49 736.585 493.668 735.774C492.858 734.963 492.452 733.966 492.452 732.782C492.452 731.598 492.858 730.601 493.668 729.79C494.49 728.979 495.487 728.574 496.66 728.574C497.834 728.574 498.831 728.979 499.652 729.79C500.474 730.601 500.884 731.598 500.884 732.782C500.884 733.966 500.474 734.963 499.652 735.774ZM496.66 735.63C497.46 735.63 498.132 735.358 498.676 734.814C499.22 734.27 499.492 733.593 499.492 732.782C499.492 731.971 499.22 731.294 498.676 730.75C498.132 730.206 497.46 729.934 496.66 729.934C495.871 729.934 495.204 730.206 494.66 730.75C494.116 731.294 493.844 731.971 493.844 732.782C493.844 733.593 494.116 734.27 494.66 734.814C495.204 735.358 495.871 735.63 496.66 735.63ZM511.637 728.782H513.093L510.613 736.782H509.189L507.317 730.862L505.445 736.782H504.021L501.541 728.782H502.997L504.757 734.862L506.645 728.782H507.989L509.877 734.878L511.637 728.782ZM518.509 728.574C519.448 728.574 520.2 728.873 520.765 729.47C521.331 730.057 521.613 730.857 521.613 731.87V736.782H520.221V731.95C520.221 731.299 520.045 730.798 519.693 730.446C519.341 730.083 518.856 729.902 518.237 729.902C517.544 729.902 516.984 730.121 516.557 730.558C516.131 730.985 515.917 731.646 515.917 732.542V736.782H514.525V728.782H515.917V729.934C516.483 729.027 517.347 728.574 518.509 728.574Z" fill="#8B8B8B"/>
<circle cx="399" cy="732.782" r="24" fill="#E6EEFF"/>
<path opacity="0.4" d="M397.314 727.402L396.85 722.161C396.85 720.985 397.813 720.032 399.001 720.032C400.188 720.032 401.151 720.985 401.151 722.161L400.688 727.402C400.688 728.325 399.932 729.073 399.001 729.073C398.067 729.073 397.314 728.325 397.314 727.402" fill="#1E43FF"/>
<path d="M397.399 745C397.316 744.918 396.967 744.612 396.676 744.325C394.858 742.648 391.886 738.27 390.976 735.98C390.831 735.632 390.522 734.752 390.5 734.281C390.5 733.831 390.605 733.402 390.811 732.992C391.099 732.481 391.555 732.073 392.092 731.847C392.463 731.703 393.579 731.478 393.599 731.478C394.818 731.254 396.8 731.131 398.991 731.131C401.075 731.131 402.976 731.254 404.215 731.437C404.237 731.458 405.621 731.683 406.096 731.929C406.963 732.379 407.5 733.258 407.5 734.199V734.281C407.48 734.895 406.941 736.183 406.923 736.183C406.013 738.352 403.184 742.626 401.303 744.345C401.303 744.345 400.82 744.83 400.518 745.04C400.085 745.368 399.548 745.532 399.011 745.532C398.412 745.532 397.855 745.348 397.399 745" fill="#1E43FF"/>
<g opacity="0.6">
<path d="M161.286 634.159C213.25 733.362 274.33 893.084 434.819 851.619C576.479 815.018 541.3 536.357 788.841 608.885C1042.2 683.117 940.712 399.221 1169.86 474.559C1303.14 518.376 1371.28 465.731 1390.65 429.393" stroke="#00D1FF" stroke-width="3"/>
<path opacity="0.6" d="M1376.82 423.31C1041.28 695.985 1036.72 494.128 903.959 468.515C640.786 417.741 660.875 1010.01 366.041 828.145C139.233 688.237 -0.859464 685.432 -89.1358 858.504" stroke="#1E43FE" stroke-width="3"/>
</g>
<g opacity="0.6">
<path d="M1517.09 454.482C1538.56 402.49 1609.73 323.925 1722.63 425.596C1863.76 552.683 1830.7 331.7 1937.79 319.565" stroke="#1E43FE" stroke-width="3" stroke-linecap="round" stroke-linejoin="round"/>
<path d="M1363.97 545.185C1386.4 483.892 1448.79 421.193 1630.52 474.451C1857.69 541.024 1764.22 307.804 1918.12 249.606" stroke="#00D1FF" stroke-width="3" stroke-linecap="round" stroke-linejoin="round"/>
<circle cx="1861.62" cy="320.987" r="4.61877" transform="rotate(-16.313 1861.62 320.987)" fill="#00D1FF"/>
</g>
<circle cx="161.639" cy="625.365" r="27.5441" fill="#0153FF"/>
<circle cx="326.536" cy="803.8" r="14.9727" transform="rotate(-39.621 326.536 803.8)" fill="#66E3FF"/>
</svg>
