<svg width="142" height="37" viewBox="0 0 142 37" fill="none" xmlns="http://www.w3.org/2000/svg">
<path d="M54.6792 9.12782H52.0019V4.19824H47.3367V9.12782H44.6594V13.8635H47.3367V29.5993H52.0019V13.8635H54.6792V9.12782Z" fill="black"/>
<path d="M76.0338 19.3844C76.0338 18.2869 75.8635 17.2287 75.5479 16.2366C74.2397 12.1235 70.4369 9.14722 65.9504 9.14722C60.3812 9.14722 55.8669 13.7311 55.8669 19.383C55.8669 25.0362 60.3812 29.6187 65.9504 29.6187C69.5994 29.6187 72.7972 27.65 74.5664 24.7032L70.3317 22.6178C69.3475 23.9907 67.75 24.8831 65.949 24.8831C63.5001 24.8831 61.4319 23.2347 60.7605 20.9709H75.912C75.9922 20.4552 76.0338 19.9254 76.0338 19.3844ZM61.5067 16.2366C62.4854 14.8145 64.1106 13.8843 65.9504 13.8843C67.7901 13.8843 69.4153 14.8145 70.394 16.2366H61.5067Z" fill="black"/>
<path d="M141.694 19.3844C141.694 18.2869 141.523 17.2287 141.208 16.2366C139.9 12.1235 136.097 9.14722 131.61 9.14722C126.041 9.14722 121.527 13.7311 121.527 19.383C121.527 25.0362 126.041 29.6187 131.61 29.6187C135.259 29.6187 138.457 27.65 140.226 24.7032L135.992 22.6178C135.007 23.9907 133.41 24.8831 131.609 24.8831C129.16 24.8831 127.092 23.2347 126.42 20.9709H141.572C141.652 20.4552 141.694 19.9254 141.694 19.3844ZM127.167 16.2366C128.145 14.8145 129.77 13.8843 131.61 13.8843C133.45 13.8843 135.075 14.8145 136.054 16.2366H127.167Z" fill="black"/>
<path d="M10.8764 9.14881C8.88157 9.14881 7.02242 9.7362 5.45814 10.7508V0.85791H0.792969V18.748V19.3789C0.792969 19.3803 0.792969 19.3832 0.792969 19.3846C0.792969 19.386 0.792969 19.3888 0.792969 19.3902V29.6217H5.45814V28.0169C7.02381 29.0315 8.88157 29.6217 10.8764 29.6217C16.4455 29.6217 20.9598 25.0392 20.9598 19.386C20.9612 13.7313 16.4455 9.14881 10.8764 9.14881ZM10.8764 24.8847C7.88347 24.8847 5.45814 22.4227 5.45814 19.3846C5.45814 16.3464 7.88347 13.8845 10.8764 13.8845C13.8693 13.8845 16.2946 16.3464 16.2946 19.3846C16.2946 22.4227 13.8693 24.8847 10.8764 24.8847Z" fill="black"/>
<path d="M38.444 9.12744L32.8112 23.2782L27.1798 9.12744H22.1477L30.2959 29.6003L27.4622 36.7193H32.4942L32.8112 35.9211L35.3279 29.6003L43.476 9.12744H38.444Z" fill="black"/>
<path d="M92.7218 9.12744V10.7294C91.1561 9.71483 89.2984 9.12744 87.3036 9.12744C81.7344 9.12744 77.2202 13.7099 77.2202 19.3632C77.2202 25.0165 81.7344 29.5989 87.3036 29.5989C89.2984 29.5989 91.1561 29.0116 92.7218 27.997V29.5989H97.387V9.12744H92.7218ZM87.3036 24.8633C84.3107 24.8633 81.8853 22.4013 81.8853 19.3632C81.8853 16.3251 84.3107 13.8631 87.3036 13.8631C90.2965 13.8631 92.7218 16.3251 92.7218 19.3632C92.7218 22.4013 90.2965 24.8633 87.3036 24.8633Z" fill="black"/>
<path d="M112.381 18.8701L109.46 22.8048L106.539 18.8701L99.3059 9.12622H105.148L109.46 14.9355L112.381 18.8701Z" fill="#0153FF"/>
<path d="M119.614 9.12622L116.833 12.8712L113.912 16.8058L110.991 12.8726L113.772 9.12622H119.614Z" fill="#5FECFD"/>
<path d="M120.346 29.599H114.503L113.912 28.8037L110.991 24.8676L113.912 20.9343L116.833 24.8676L120.346 29.599Z" fill="#0153FF"/>
<path d="M112.381 18.8705L109.46 22.8051L104.415 29.5995H98.5735L106.539 18.8705L109.46 14.9358L112.381 18.8705Z" fill="#5FECFD"/>
</svg>
