<svg width="1920" height="1133" viewBox="0 0 1920 1133" fill="none" xmlns="http://www.w3.org/2000/svg">
<path d="M1682.46 706.2C1630.49 805.403 1569.41 965.125 1408.92 923.66C1267.26 887.059 1302.44 608.398 1054.9 680.926C801.545 755.158 1012.77 474.889 673.879 546.6C467.304 590.312 549.597 413.928 530.222 377.59" stroke="#00D1FF" stroke-width="3"/>
<path opacity="0.6" d="M483.283 248.759C453.322 493.44 705.991 617.277 939.781 540.558C1194.88 456.847 1182.87 1082.06 1477.7 900.187C1704.51 760.28 1844.6 757.474 1932.88 930.546" stroke="#1E43FE" stroke-width="3"/>
<g opacity="0.6">
<path d="M400.262 216.404C378.79 164.413 307.622 85.8479 194.721 187.518C53.5962 314.606 86.6487 93.6221 -20.4383 81.4876" stroke="#1E43FE" stroke-width="3" stroke-linecap="round" stroke-linejoin="round"/>
<path d="M553.381 307.107C530.955 245.814 468.563 183.115 286.828 236.374C59.6589 302.947 153.137 69.7259 -0.767507 11.5287" stroke="#00D1FF" stroke-width="3" stroke-linecap="round" stroke-linejoin="round"/>
<circle r="4.61877" transform="matrix(-0.959742 -0.280885 -0.280885 0.959742 55.7315 82.9092)" fill="#00D1FF"/>
</g>
<circle r="27.5441" transform="matrix(-1 0 0 1 1682.1 697.406)" fill="#0153FF"/>
<circle r="14.9727" transform="matrix(-0.77028 -0.637706 -0.637706 0.77028 1517.21 875.841)" fill="#66E3FF"/>
</svg>
